<?xml version="1.0" encoding="utf-8"?>
<!-- Generator: Adobe Illustrator 18.0.0, SVG Export Plug-In . SVG Version: 6.00 Build 0)  -->
<!DOCTYPE svg PUBLIC "-//W3C//DTD SVG 1.1//EN" "http://www.w3.org/Graphics/SVG/1.1/DTD/svg11.dtd">
<svg version="1.1" id="图层_1" xmlns="http://www.w3.org/2000/svg" xmlns:xlink="http://www.w3.org/1999/xlink" x="0px" y="0px"
	 viewBox="0 0 132 48" enable-background="new 0 0 132 48" xml:space="preserve">
<g id="XMLID_52_">
	<g id="XMLID_67_">
		<path id="XMLID_77_" d="M74.6,45.2l-1.1-2h0.8l0.4,0.7c0.1,0.2,0.2,0.4,0.3,0.7h0c0.1-0.2,0.2-0.5,0.3-0.7l0.4-0.7h0.7l-1.1,2v1.1
			h-0.7V45.2z"/>
		<path id="XMLID_75_" d="M76.8,44.9v-1.7h0.7V45c0,0.6,0.3,0.9,0.7,0.9c0.4,0,0.7-0.2,0.7-0.9v-1.7h0.7v1.7c0,1-0.5,1.4-1.4,1.4
			C77.3,46.4,76.8,45.9,76.8,44.9z"/>
		<path id="XMLID_73_" d="M83.3,45.2l-1.1-2H83l0.4,0.7c0.1,0.2,0.2,0.4,0.3,0.7h0c0.1-0.2,0.2-0.5,0.3-0.7l0.4-0.7h0.7l-1.1,2v1.1
			h-0.7V45.2z"/>
		<path id="XMLID_70_" d="M85.1,44.7c0-1,0.6-1.6,1.6-1.6c0.9,0,1.6,0.6,1.6,1.6c0,1-0.6,1.6-1.6,1.6C85.8,46.4,85.1,45.7,85.1,44.7
			z M87.6,44.7c0-0.7-0.3-1.1-0.9-1.1c-0.5,0-0.9,0.4-0.9,1.1c0,0.7,0.3,1.1,0.9,1.1C87.2,45.8,87.6,45.4,87.6,44.7z"/>
		<path id="XMLID_68_" d="M88.5,44.9v-1.7h0.7V45c0,0.6,0.3,0.9,0.7,0.9c0.4,0,0.7-0.2,0.7-0.9v-1.7h0.7v1.7c0,1-0.5,1.4-1.4,1.4
			C89,46.4,88.5,45.9,88.5,44.9z"/>
	</g>
	<g id="XMLID_53_">
		<path id="XMLID_64_" d="M93.8,43.2h1.2c0.8,0,1.4,0.2,1.4,1c0,0.7-0.6,1-1.4,1h-0.5v1.1h-0.7V43.2z M94.9,44.7
			c0.5,0,0.7-0.2,0.7-0.5c0-0.4-0.3-0.5-0.7-0.5h-0.4v1H94.9z"/>
		<path id="XMLID_62_" d="M96.8,43.2h0.7v3.1h-0.7V43.2z"/>
		<path id="XMLID_60_" d="M98.2,43.2h0.7l1,1.6l0.4,0.7h0c0-0.3-0.1-0.7-0.1-1.1v-1.2h0.7v3.1h-0.7l-1-1.6L98.8,44h0
			c0,0.3,0.1,0.7,0.1,1.1v1.2h-0.7V43.2z"/>
		<path id="XMLID_58_" d="M104.6,44.7l-0.9-1.5h0.8l0.4,0.6c0.1,0.1,0.2,0.3,0.3,0.5h0c0.1-0.2,0.2-0.3,0.2-0.5l0.3-0.6h0.7
			l-0.9,1.5l1,1.6h-0.8l-0.4-0.7c-0.1-0.2-0.2-0.3-0.3-0.5h0c-0.1,0.2-0.2,0.4-0.3,0.5l-0.4,0.7h-0.8L104.6,44.7z"/>
		<path id="XMLID_56_" d="M106.7,44.9v-1.7h0.7v1.7c0,0.6,0.3,0.9,0.7,0.9c0.4,0,0.7-0.2,0.7-0.9v-1.7h0.7v1.7c0,1-0.5,1.4-1.4,1.4
			C107.2,46.3,106.7,45.9,106.7,44.9z"/>
		<path id="XMLID_54_" d="M110.1,43.2h2.2v0.5h-1.5v0.7h1.2v0.5h-1.2v0.8h1.5v0.5h-2.2V43.2z"/>
	</g>
</g>
<g id="XMLID_8_">
	<g id="XMLID_29_">
		<g id="XMLID_41_">
			<path id="XMLID_49_" d="M95.3,13.2L93,11.6l-1,1.3H81.8l-2.1-1c0,1.1,0,9.5,0,11.3l2.1-0.9v-1.5h10.5v2.1l1.9-0.9
				c0-1.7,0-5.7,0-7.9L95.3,13.2z M92.3,19.4H81.8v-5.1h10.5V19.4z"/>
			<g id="XMLID_42_">
				<path id="XMLID_46_" d="M86.8,24.7l-2.2-1.6l-1,1.3h-5.8l-2.1-1c0,1.1,0,10.6,0,12.4l2.1-0.9v-1.5h6.1v2.1l1.9-0.9
					c0-1.7,0-6.8,0-9L86.8,24.7z M83.8,32h-6.1v-6.2h6.1V32z"/>
				<path id="XMLID_43_" d="M99.4,24.7l-2.2-1.6l-1,1.3h-5.8l-2.1-1c0,1.1,0,10.6,0,12.4l2.1-0.9v-1.5h6.1v2.1l1.9-0.9
					c0-1.7,0-6.8,0-9L99.4,24.7z M96.4,32h-6.1v-6.2h6.1V32z"/>
			</g>
		</g>
		<g id="XMLID_30_">
			<path id="XMLID_40_" d="M113.8,31.9c0,2.2-0.7,3-2.9,3.8c-0.1,0-0.1,0-0.2,0c-0.1,0-0.2-0.1-0.2-0.2c-0.1-1.1-4-3.1-4-3.1
				c2.1,0.4,3.4,0.6,4.3,0.6c1.3,0,1.4-0.4,1.4-1.3v-8.9l2.6,0.8l-0.9,0.6V31.9z"/>
			<path id="XMLID_39_" d="M122.9,17.9h-14.1c-0.5,0-5.4,0-5.4,0l-0.2-1.4h18.1l0.9-0.6L122.9,17.9z"/>
			<path id="XMLID_38_" d="M118,11.6l2,1.3l-0.7,0.5c-1.1,1.4-2.1,2.8-3.2,4.1h-0.6c0.5-0.9,1.1-2,1.6-3.3
				C117.7,12.9,118,12.1,118,11.6z"/>
			<path id="XMLID_37_" d="M122.1,16l1.6,0.8c0,0-0.4,1.5-2.3,3.6c0.4-1.3,0.5-2.2,0.6-2.9C122.3,16.3,122.1,16.4,122.1,16z"/>
			<polygon id="XMLID_36_" points="118.3,20 120.1,21.5 119.1,21.8 113.8,24.2 113.3,24 			"/>
			<path id="XMLID_35_" d="M109.2,14.7c0,0.3-0.1,1.1-0.8,1.1c-0.6,0-0.9-0.3-1.2-1.1c-0.4-1-0.9-1.8-2.4-2.7
				C104.7,12,109.1,12.5,109.2,14.7z"/>
			<path id="XMLID_34_" d="M102.8,21.6c-0.3,0.2-1.2,0.4-1.5-0.4c-0.3-0.7-0.2-1.2,0.4-1.9c0.8-0.9,1.3-1.8,1.3-4
				C103.1,15.3,104.9,20.5,102.8,21.6z"/>
			<path id="XMLID_33_" d="M114.3,14.7c0,0.3-0.1,1.1-0.8,1.1c-0.6,0-0.9-0.3-1.2-1.1c-0.4-1-0.9-1.8-2.4-2.7
				C109.8,12,114.3,12.6,114.3,14.7z"/>
			<path id="XMLID_32_" d="M115,20l2.1-1l2.9,2.4h-8.4c-1.2,0-2.7,0.2-4.3,0.7l-2.1-2.1L115,20z"/>
			<path id="XMLID_31_" d="M119,26.2l2.3-0.8l2.7,2.2h-16.1c-1.2,0-2.7,0.2-4.3,0.7l-2.1-2.1H119z"/>
		</g>
	</g>
	<g id="XMLID_16_">
		<path id="XMLID_28_" d="M36.7,7.5l2.7-1.5L42.9,9H20.5c-3.4,7.5-6.2,11.3-15.1,15.9c0,0,9-5.8,11.2-15.9h-3.2
			c-1.3,0-2.8,0.2-4.6,0.7L6.7,7.5H36.7z"/>
		<path id="XMLID_27_" d="M16.7,16.6h14.2l1.8-1.4l2.6,2.3H20.6c-0.6,0-1.5,0.2-2.6,0.5L16.7,16.6z"/>
		<path id="XMLID_26_" d="M17.5,20.3H30l2-1.7l2.4,2.6H21.8c-0.8,0-1.8,0.2-2.9,0.5L17.5,20.3z"/>
		<path id="XMLID_25_" d="M17.5,23.4H30l2-1.7l2.4,2.6H21.8c-0.8,0-1.8,0.2-2.9,0.5L17.5,23.4z"/>
		<path id="XMLID_22_" d="M35.4,26.9l-2.3-1.7l-1.1,1.4H18.6l-2.1-1.1c0,1.1,0,7.6,0,9.5l2.1-0.9v-1.5h13.8v2.1l2-0.9
			c0-1.8,0-3.7,0-6.1L35.4,26.9z M32.4,31.8H18.6v-4.2h13.8V31.8z"/>
		<g id="XMLID_18_">
			<path id="XMLID_21_" d="M33,0l2.8,1.8l-1,0.7c-1.5,2-3,3.8-4.4,5.6h-0.8c0.7-1.3,1.5-2.8,2.2-4.6C32.5,1.8,32.9,0.6,33,0z"/>
			<path id="XMLID_20_" d="M20.9,4.3c0,0.4-0.1,1.5-1.1,1.5c-0.8,0-1.3-0.5-1.7-1.6c-0.5-1.3-1.2-2.5-3.4-3.7
				C14.6,0.6,20.8,1.3,20.9,4.3z"/>
			<path id="XMLID_19_" d="M28,4.3c0,0.4-0.1,1.5-1.1,1.5c-0.8,0-1.3-0.5-1.7-1.6c-0.5-1.3-1.2-2.5-3.4-3.7
				C21.8,0.6,27.9,1.4,28,4.3z"/>
		</g>
		<path id="XMLID_17_" d="M27.1,14.6c0,0.3-0.2,1-0.9,0.9c-0.6-0.1-0.9-0.4-1.1-1.2c-0.2-0.9-0.6-1.8-2-2.8
			C23,11.6,27.3,12.7,27.1,14.6z"/>
	</g>
	<g id="XMLID_9_">
		<path id="XMLID_15_" d="M42.9,46.3V21.9l3.7,1.7l-1.5,1.5c0,0,0,16.9,0,20.2L42.9,46.3z"/>
		<path id="XMLID_14_" d="M55.5,22.4v-8.8l3.7,1.8l-1.5,1.3v5.8v1c-0.1,3.9-0.5,7.3-1.3,10.2c-0.8,3-2,5.6-3.7,7.9
			c-1.7,2.3-4.1,4.5-7.1,6.5c0,0,9.8-8.3,9.8-24.7V22.4z"/>
		<path id="XMLID_13_" d="M61.3,24.7c0,0,0,13.3,0,17.4c0,1.5,0.6,2.6,2.1,2.6c0,0,1.7,0,2.8,0c2.8,0,3.7-6.9,3.7-6.9
			c0,1.6,1.1,6,2.8,6.2c-0.9,1.5-2,2.3-3.5,2.3h-6.4c-2.5,0.1-3.7-0.9-3.7-3.1V24.7H61.3z"/>
		<path id="XMLID_12_" d="M66.9,17.8c0,0.3-0.2,1-0.9,0.9c-0.6-0.1-0.9-0.4-1.1-1.2c-0.2-0.9-0.6-1.8-2-2.8
			C62.8,14.8,67.1,15.9,66.9,17.8z"/>
		<path id="XMLID_11_" d="M65.9,22.2l2.7-1.5l3.6,2.9H52.9c-1.3,0-2.8,0.2-4.6,0.7l-2.2-2.2H65.9z"/>
	</g>
</g>
<path id="XMLID_92_" fill="#00437C" d="M3.5,9h4.2L5.6,6.9L5.2,7.1C4.8,7.3,4.1,7.5,3.8,7.5H0.9v32.3h41.6v-1.4h-39V9z"/>
<polygon id="XMLID_93_" fill="#00437C" points="59.2,7.5 57.7,9 128.5,9 128.5,38.5 70.2,38.5 70.5,39.9 131.1,39.9 131.1,7.5 "/>
<polygon id="XMLID_94_" fill="#00437C" points="44.7,10.1 46.4,9 51.7,9 53.5,7.5 41.6,7.5 "/>
<path id="XMLID_4_" fill="#E83820" d="M63.2,1.7c0-0.1-0.3,0.1-0.3,0.1c-0.2,0.1-0.2,0.1-0.2,0c0-0.1,0.1-0.2,0-0.2
	c-0.2,0-1.1,0.6-1.3,0.7c0.1-0.1,0.1-0.2,0.1-0.3c0,0-0.4,0.1-0.6,0.2c0,0,0.1-0.2,0-0.2c-0.3,0.1-1,0.7-1,0.7c0,0,0.2-0.2,0.1-0.2
	c0,0-0.9,0.7-1.5,1.2c-1,0.9-3.1,2.8-3.4,3l0,0c-0.3,0-0.8,0.5-1.3,0.9c-0.1,0.1-0.2,0.2-0.3,0.2c-0.3,0.2-1,0.8-1.5,1.2
	c-0.2,0.2-1,1-1,1c0,0,0-0.1-0.1,0c-0.2,0.2-2.5,2.1-2.8,2.3c-0.2,0.2-3.7,3.2-4.2,3.5c-1.2,0.8-2.5-1-3.1-1.4
	c-0.6-0.5-1.3-1.1-1.6-1.3c-0.2-0.2-0.5-0.5-0.7-0.7c-0.3-0.3-0.6-0.6-0.8-0.8c-0.1-0.1-1.2-1.2-1.7-1.6c-0.1-0.1-0.5-0.4-0.9-0.4
	c-0.1,0-0.6,0.1-0.7,0.4c0,0-0.1,0.1-0.2,0.1c-0.2-0.1-0.3,0-0.5,0.2c0,0-0.4,0.1-0.7,0.3c-0.7,0.5-1.1,1.2-1.1,1.6
	c0,0.1,0,0.2,0.1,0.3c0,0.1,0.1,0.1,0.1,0.2c0,0.1,0,0.1,0,0.1c0,0.1,0,0.2,0.1,0.4c0.1,0.2,0.5,0.7,1.2,1.2
	c0.2,0.1,0.9,0.8,1.1,0.9c0.5,0.5,2.7,2.3,4.9,3.7c0,0,0.2,0.1,0.2,0.1c1.4,0.9,2.6,1.6,3.3,1.6c1.2,0,3.6-1.8,5.8-3.9
	c0.1-0.1,0.3-0.4,0.8-0.9c1.5-1.5,4.4-4.3,4.7-4.6c1.2-1.1,7.6-7,8.2-8.6c0-0.1-0.2,0.1-0.2,0.1C62.7,2.7,63.1,2.1,63.2,1.7z"/>
</svg>
