<?xml version="1.0" encoding="utf-8"?>
<!-- Generator: Adobe Illustrator 16.0.0, SVG Export Plug-In . SVG Version: 6.00 Build 0)  -->
<!DOCTYPE svg PUBLIC "-//W3C//DTD SVG 1.1//EN" "http://www.w3.org/Graphics/SVG/1.1/DTD/svg11.dtd">
<svg version="1.1" id="图层_1" xmlns="http://www.w3.org/2000/svg" xmlns:xlink="http://www.w3.org/1999/xlink" x="0px" y="0px"
	 width="40px" height="40px" viewBox="-6 -6 40 40" enable-background="new -6 -6 40 40" xml:space="preserve">
<path display="none" fill="#6B6C6B" d="M54.492-4.664c0.145,0.146,0.145,0.379,0,0.523L13.128,37.225
	c-0.146,0.146-0.379,0.146-0.524,0l-2.618-2.617c-0.145-0.146-0.145-0.379,0-0.521L51.352-7.281c0.146-0.146,0.379-0.146,0.522,0
	L54.492-4.664z"/>
<g>
	<path fill="#323333" d="M4.177,26.649c-0.045,0.041-0.142,0.014-0.22-0.065L1.415,24.04c-0.079-0.078-0.107-0.174-0.065-0.22
		l0.774-0.769c0.042-0.045,0.141-0.017,0.218,0.063l2.54,2.54c0.082,0.085,0.109,0.178,0.064,0.222L4.177,26.649z"/>
	<path fill="#323333" d="M6.887,23.935c-0.043,0.042-0.142,0.016-0.219-0.063l-2.54-2.543c-0.079-0.077-0.106-0.177-0.063-0.219
		l0.773-0.77c0.042-0.046,0.14-0.017,0.22,0.065l2.54,2.538c0.078,0.079,0.107,0.178,0.064,0.218L6.887,23.935z"/>
	<path fill="#323333" d="M9.601,21.222c-0.042,0.043-0.142,0.017-0.219-0.063L6.84,18.615c-0.08-0.077-0.106-0.175-0.064-0.216
		l0.773-0.772c0.043-0.042,0.141-0.014,0.218,0.064l2.54,2.538c0.079,0.081,0.106,0.18,0.065,0.221L9.601,21.222z"/>
	<path fill="#323333" d="M12.316,18.51c-0.043,0.044-0.141,0.018-0.22-0.065l-2.543-2.541c-0.078-0.077-0.105-0.173-0.063-0.218
		l0.771-0.772c0.043-0.04,0.141-0.015,0.218,0.064l2.539,2.541c0.078,0.079,0.108,0.178,0.065,0.221L12.316,18.51z"/>
	<path fill="#323333" d="M15.028,15.799c-0.044,0.043-0.141,0.014-0.222-0.068l-2.541-2.538c-0.079-0.08-0.106-0.175-0.063-0.219
		l0.772-0.772c0.043-0.042,0.139-0.013,0.218,0.065l2.542,2.541c0.078,0.08,0.106,0.178,0.063,0.218L15.028,15.799z"/>
	<path fill="#323333" d="M17.74,13.086c-0.046,0.043-0.141,0.013-0.22-0.065l-2.541-2.541c-0.078-0.08-0.106-0.176-0.064-0.219
		l0.773-0.771c0.044-0.042,0.137-0.013,0.218,0.063l2.543,2.543c0.076,0.079,0.105,0.175,0.063,0.218L17.74,13.086z"/>
	<path fill="#323333" d="M20.452,10.375c-0.041,0.042-0.144,0.013-0.22-0.065l-2.541-2.542c-0.082-0.077-0.109-0.174-0.065-0.217
		l0.773-0.773c0.038-0.043,0.139-0.015,0.216,0.063l2.542,2.542c0.077,0.078,0.105,0.173,0.063,0.218L20.452,10.375z"/>
	<path fill="#323333" d="M23.165,7.661c-0.044,0.042-0.143,0.014-0.221-0.065l-2.541-2.54c-0.08-0.079-0.107-0.177-0.063-0.218
		l0.771-0.772c0.043-0.042,0.143-0.014,0.22,0.064l2.54,2.542c0.081,0.078,0.108,0.176,0.063,0.216L23.165,7.661z"/>
	<path fill="#323333" d="M25.875,4.948c-0.042,0.042-0.14,0.014-0.221-0.065l-2.538-2.541c-0.081-0.079-0.107-0.175-0.065-0.217
		l0.773-0.772c0.042-0.045,0.141-0.014,0.219,0.063l2.543,2.542c0.078,0.078,0.104,0.174,0.063,0.219L25.875,4.948z"/>
</g>
</svg>
